<mxfile host="65bd71144e">
    <diagram id="CqkAmArfYS8etkwj74fW" name="Page-1">
        <mxGraphModel dx="693" dy="467" grid="1" gridSize="10" guides="1" tooltips="1" connect="1" arrows="1" fold="1" page="1" pageScale="1" pageWidth="827" pageHeight="1169" math="0" shadow="0">
            <root>
                <mxCell id="0"/>
                <mxCell id="1" parent="0"/>
                <mxCell id="2" value="Azure" style="sketch=0;outlineConnect=0;gradientColor=none;html=1;whiteSpace=wrap;fontSize=12;fontStyle=0;shape=mxgraph.aws4.group;grIcon=mxgraph.aws4.group_region;strokeColor=#879196;fillColor=none;verticalAlign=top;align=left;spacingLeft=30;fontColor=#879196;dashed=1;" parent="1" vertex="1">
                    <mxGeometry x="160.91" y="70" width="540" height="420" as="geometry"/>
                </mxCell>
                <mxCell id="3" value="Network" style="sketch=0;outlineConnect=0;gradientColor=none;html=1;whiteSpace=wrap;fontSize=12;fontStyle=0;shape=mxgraph.aws4.group;grIcon=mxgraph.aws4.group_region;strokeColor=#879196;fillColor=none;verticalAlign=top;align=left;spacingLeft=30;fontColor=#879196;dashed=1;" parent="1" vertex="1">
                    <mxGeometry x="180.91" y="100" width="500" height="370" as="geometry"/>
                </mxCell>
                <mxCell id="105" style="edgeStyle=none;html=1;fontFamily=Helvetica;fontSize=9;fontColor=default;" edge="1" parent="1">
                    <mxGeometry relative="1" as="geometry">
                        <mxPoint x="320" y="370" as="sourcePoint"/>
                        <mxPoint x="350" y="390" as="targetPoint"/>
                    </mxGeometry>
                </mxCell>
                <mxCell id="4" value="Azure Static &#10;Web Apps" style="shape=image;verticalLabelPosition=bottom;labelBackgroundColor=#ffffff;verticalAlign=top;aspect=fixed;imageAspect=0;image=data:image/png,iVBORw0KGgoAAAANSUhEUgAAARAAAADeCAYAAAD1n19lAAAAAXNSR0IArs4c6QAAAARnQU1BAACxjwv8YQUAAAAJcEhZcwAAEnQAABJ0Ad5mH3gAACWFSURBVHhe7Z0HmFT11f/VmKKvjommvIn6xnmNMaYnmuRdQFBiiyUaNf9oBBWwYEQULCBNBCxIR0CQ3qT33ntVetlll+29sLC7LOxSPP/znZ1RWM7OvXPvnZ07M+f3PJ8nz2N2vnfuMOdzf+d3y1ykQ4cOHfUxLlYUJa6wNRDwDeZSP99kvqUoSlyAeg/UPjwQklAuYfDCbzOX+/kv5grmSsajKEpMgvpGnaPeUfeXMfAAfAAvGA7YBvb5DoMQhF7FXM1cw/yA+aGiKDEJ6ht1jnr/LgOhwAPwAbwAP9Q5YJiAPGAhiON7zPeZHzE/Zq5lrlMUJSZBfaPOUe+oe4gEHjhXIuJMBD0OpikBecA+MBGshECE/w9zA+Nl/pe5kfmZoihRDeoY9Yy6Rn2jzlHvqHvUPzwAicAL8AM8ccGaCKYmWDwJtC0BefyEuZ5BMDZyE3Mz8wvml8yvFEWJalDHqGfUNeobdf5TBnWP+ocHMBOBF+AHeOKCViYw+0DPg7YFvRAMFJAHTIUNYGO/Zn7L/I75PfNHP7cqihIVBGoW9Ys6Rj2jrlHfqHPMSjAjQf3DA/ABvAA/BGYh5w38B6y4BmYf/81gGnPDnsxSuuXNuXTRU+MVRYknaiYP8AB8AC/AD/CEKBCctkGvg8UTWAe90I1Pf7KBLpbCFUWJbWraGXggMAuBH+CJ8wSCBRGsrqK/weIpeh6sxsI+N1313GdyuKIosU3Nmgg8AB/AC/ADPAFffLWQeq5A0OfgFA6mLeiBfi4GK4oS+6D+azwAH8AL8IMpgWDxBNOXm8VgRVFin5oFVXgAPsA6SEgCwUrsLWKwoiixT83pXXgA6yAhCwSnbn8pBiuKEvvUnNaFB1QgiqKEiApEURTLqEAURbGMCkRRFMuoQBRFsYwKRFEUy6hAFEWxjApEURTLqEAURbFMtArkO89Ooh/9Zzrd2H42Pdx/DTUbtoEeG7iWft1xHl33ygz6r5aT6+URA5c0m0Ce5z6j/2k7k27tstD3PsAdvZb53tv3W0+lS5+eKL7Wab71zET64UvTfNu9v88q3/t4fNBa37NarufP5IpWk8XXKYplolEgTXoupUFLE2lH+hGqrD5NtUd6UQVN2JhKT3y8nq5sFb5HDaBYW4/ZQrO2Z1D2kUr/1r8eeG8bkgqp19y9dGvnBT7ZSDl2gaDwmfRffIC2p5bQCekzKa6gKZvT6dkRG+m7z08RcxQlZKJJIJe1mEQTNhym4vIqOvvll/7SqHuUnzxFm5KL6PedFoh5dri9xxLan32Ui/WMf2t1jzNnv6Sc0krqPH2nb+Yk5VnlmyyP4auSTX8mkNqagwX0m47zxTxFCYloEQjakvk7sv1lENpIzC2jv3RbJOaGCgr2Xx+vo4qTFx7ljQZE0m/RAcdaCXwmS/bk+NNDG4cLyn0t18XN5GxFMUU0CART9InckpzmArQ6MkuOU0L3xWJ+KPzto5ViuxLKQKuBNRop3yyX82zM95mcsf6Z5PKsqBHPpKR8RTFFNAik8/RdtuQRGJu5ncFRW9qGGa5+YSoVlp30p1kfx6tO0zPDN4rbMEu7idvp1Jmz/kTrY/WBfLq2jfXPRIlz3C6QG16d5VvLcGKg/28xYpOlafs3mk+gAUsO+pPsjyW7c+h7L1hbzPzv/0yn0uPV/iR7o+r0GV9LJm1HUQxxs0BQ6N1m7ja1OGh2LNiZ7TvdKW0vGDg1ijbIqQGZ3fXBcnFbRvSYvcef4sxYsS9P3I6iGOJmgeAaimV7c/1fc2fGyVNnLB35cU1FJbceTo6hK5LEbQXje9xGoRVzcmBx91obrZ0Sx7hZIL/qMI9SCsr9X3PnBn7HRtpeXaB96bNwv//Vzo28oyfE7QUDZ07Siir8Cc6NV8ZvE7enKEFxs0Bw6rWkosr/FXdudJ2xS9xeXeDajZFrkv2vdnZcEeLZGLQ9RQ4s5NYeHy3YL25PUYLiZoE0fHcJVTi0gHrumLAhVdxeXeBS9TlfZPpf7ez4SYhnQB7os9KxBdRzx+zPM8XtKUpQ3CyQP2MGUu78DKTbzNBmILgCdtSaFP+rnRtYHA71Uvu73g/PDKTPwgPi9hQlKG4WSLjWQP49dL24vbq4tPkE6s1TfOfOBdUMN62BvDR2q7g9RQmKmwVyzYtTaekeZ8/C4OKrqzlX2l4wcOGXdOOenTFidbK4rWBc9fwU2pzi7FkYjOvbzhS3pyhBcbNALm42gXrO2ePodSC4gMvKdSA/f30OZTl4HQhuwruv90pxW0Z8MH+fP8WZseZgvrgdRTHEzQIBP2s/x7GFVBTtC6M2W7oSFW0MrttwauDiLSszIXD9KzPpWKUzC6nVp89S8xBPayvKV7hdIKDnnL2OzELwrAw7932gpSp24LQyRPbcyM3iNszSYeoORz6TtYkFei+MYp1oEAhuoZ+8KY1O27h5LOuIM3ee4klfuUdP+FNDH7jqc8jyJLq8hd27cSfTJJufCe7GxZPTpHxFMUU0CARgkW/WdmvXYuDBP417LhVzQwXrJ08NW2/pWgws4OJsDq4rkbJDBZ/JvB1Z/vTQxsHcY76HIunzQBRbRItAAI6649YfprITp0xN39EqbD1cTL/pOE/Ms8NtXRZRcn4ZVZ02ngHgveKK2i4zdtG3HX4iGYQ2bOUh32dipqOpOnXG95S2m9+YI+YpSkhEk0ACYDbx8fJE2sZykG5wS+Sj69Qt6b7rPew+uCcYWBN5acwW3x2+eObo2VrPLMHiL56JillHOB6rGAALvLf7P5OtKUXi6WZcTzN9azq1GrlZH66sOEc0CgTgSI6HA/2BCxP3h7Qes5X+MWCN7+rVG9vNpiu5TaiPp7KjBbj6hSm+I/qfutY8lb3lp5uoSa+lPmn8+OXpvgKXXus0mI3grto/dF5Ad763zPeZ/L3fat9nctPr/JmE8QHTSpwSrQJRFMUFqEAURbGMCkRRFMuoQBRFsYwKRFEUy6hAFEWxjApEURTLqEAURbGMCkRRFMuoQBRFsYwKRFEUy6hAFEWxjApEURTLOCGQWzotJUVR4g/Uv98DNmYgHfeToihxiApEURTLqEAURbGMCkRRFMuoQBRFsYwKRFEUy6hAFEWxjApEURTLqEAURbGMCkRRFMuoQBRFsYwKRFEUy6hAFEWxjApEURTLqEAURbGMmwXyzU4H6Kp3kuin76XSLz/KoN/0URTFKjf3Tqcf9Uihy7sk0iVvHxBrLmTcKJCLmWu6J9MtLI0/D8im/xuYoyiKQ9zWP5tueD+Vvt35oFh/IeE2gUAeP+mZQn9ScShK2PgL87u+mTzLtykRtwnke9yy3No/S9xpRVGc5dd9IBEb7YybBHIp78jv+qo8FKW+wEzkul6HfTN/qSYNcZNAru+VIu6koijh47fcynzL6nqIWwSCVWH0ZNIOKooSPjALuapbkliXhrhFIJd1SaRb++vCqaJEgmt7poh1aYhbBHIlGxCnl6SdUxQlvHjfTxXr0hC3CMSjAlGUiKECURTFMioQxfUkMI0G5/poMEj+GyUyqEAU19N9WSllHz1NmaWnafbe4/T2wiPUbFKhTyjS3yv1hwpEcTV/+zSPDhefonNH1ekvKYuFsiXjJA1Ye4weHVsgvlYJPyoQxdW0mVVMR0+c9auj7rElvYoeHJkvZijhQwWiuBasd3yyqYzOfOm3hMFAeyPlKOEjwgLZx2H28HRLZIHgPhhIRIklmg7LpQ1pJ/16MB7jPy8Xc5TwUSMQuTaDogJRws0jo/Po2Enj9iUwXp5ZJOYo4cP7/mGxLg1RgSjh5r3lpX41GI/CijPUZAim1XKWEh4iK5AOHGQTT1cVSKyyM6fKrwfjMWZbmZihhBfveywQoS4NUYEo4eTRMfl+NRiP02e/pMfG4gyMnKWEjwgLZC+H2UMFEpsMWnfUrwfjsS+/mhoN1vYlEtQIRK7NoKhAlHABGYTaviQMkrOU8KICUVxH88kFlFd2xq+H4KOi+iy9Ma9EzFHCT4QFsofD7OHpelAFEmP0Wl7qu1zdzEgtOUWP6/pHxKgRiFybQXFEIG9xkE08XVgg/Vgg+DkHxZAE/kdvO7uYUopP0b68amo1pVD8u0hxO7cvc/cd9+vBeCxPqqQG+DILWRLIx/0zuDHvsx3ldCdO/Qp/p5jD24sFItSlIe4RyAEViElQaK/PLTnv3hLc5dp6epH495HgrmE5lHHk/Jvngo13lhwRcyTuYFmM315Op865Nn518gl64NM88e8VY7y9UsS6NMQZgezmMHvUCCSTdwYSUeqi4aAs6rnsCJUJV3bmHjvNYikWX1ffvDi9kL40ee9LZfVZunc4ZhBy1rncPjibJn9RTidPXRi+7vAJ+sdoSER+rVI3NQKRazMoKpDootPCElEegVF8/Ay1nYWZiPz6+mLRQfPty+rkSjGjNpDHnL3H6WwdYoKw1rJE7hiCo6qcochEWCC7OMweni77VSBBaDAwi9rz7MLMLfF4xsaL07AmImeFm6ZDs8UZgjQgg1dnGwuvycfZNHZbGVWbWJRFO/Pgp7lijiLj7ZUs1qUhjgjkTQ6yiQqkbhqyPNC2lIdwQ1pe2Wl6fmpkJNKZZ0lmRw63Xfd8Yty+QB5mpYSxNuWE7yY+KUu5EJ9AhLo0RAXift6cXxySPAIDRSTlhZtliZX+d2A8FnOr05hbEyknwKNjck2vpwQG/hz73wgXpgmZyvlEWCA7Ocweni77WCAZvDOQiAIaDMykN+YVUekJcxdj1R7z91WIueHkkVG5dKio2v8Ogg+cRXl/Bc6+yFkBHubM49WhCxQD6yt/H4kZjpyt1FAjELk2g6ICcSeQR89lJVReZa1w0nwXZmEdQM4PF+3mFJp+z4XlZ6jlZ/lizrkk8GcB0VSesvZZrEmpZAmpRIIRWYG8sYPs4um8l27rywLpzzukUPs5RZblkX7kFD2Eo66QG04SmE82mr95bk9OFd0+iKfQtXIkGvCXvN8a81e21h6QCDKkbIUF0vOQWJeGqEDcRUM+2naYb71tSSk6Rc9PLRCzww3e+64Qbp4bsemomFMXTQZn+QQVymLqucM3E4mAWKOBCAvkCw6zh6fznrgXCI6QPZaWhPT4v3MH2pbmk/IpIUJH2r9/mhPSDOGfY7jFEnKC0ZhnLL1X2mtnHuL3KWXHM96eSWJdGqICcQeY/r86qzDoRWLBBuTxmIWCdJJRm4/5343xOFhQJWaYoSELcvC6o5bbmVXJlaZbp3ghsgJ5nYNs4ukEgaSLOxfrYOr/9oJiKq201rbgB5tenFbgk5CUXx/cPijTdym92dFn1RExxyx22xmcnXkEC6tCdjzi7cECEerSEGcE8jmH2eNrgWAWEj80GJBB3ZfgClNr8sDM46kJudy2yPn1xXNTzD+6sKLqLD0+BsUrZ5kF0vqI25kTFiSC60ogkfuHZ4vZ8UaNQOTaDIoKJHKg6NvOKqBjJi5Plwbk8cQ4tC1yfn0ybpv59mVrxkm6ayhaCDkrFBrx7G3ohlI6abGdWXGoku78GEdhOT9eiKxA2nOQTTxv744rgTQcmEGdF1o/2wJ5tJ6Wz22LnF+f3M0y2MZSMDNw78voLceooYMzpiaDa04fW5mJYHzdzsj58YC3R6JYl4Y4I5DtHGaPeBIIZh7dFltf84A8/sUzDzfIAzw7OY/yy8ytf2CRGBebSTl2wEzEajsDqWFh9d5PnJkVRSM1ApFrMyjuEkiauHOxBOTRZmaB5TWP1JJqajbRHW1LgHeXFtd5i33tkVl6KmzrDlgTwUzE6tmZFUmVjrVW0UaEBbKNw+zheXuXXyCYhcQmDQekU9dFRZblgSd81bQtcn6kWHHI/LM/Fu6vEDOcosngDBq6vtRyO7OK9+WRkRCcnB+reHscFOvSEEcE0o6DbOLpyALpwwLpxzsUg6DoOy8osty24PL0x0ZnU4KQHUluH5gR0rUrL0/PF3OcpBHP8vqsKrF0ihdPSYRE7hqSKWbHKt53WSBCXRrijEC2cpg9PB13xqxAGrA82szItyyP1OJqenYSty1CdqSBFM2OkuNnqBELR8pxGogNl8qbeQCRNJYnHqd7h8aPRGoEItdmUFQg4aUhy6ObjbYlq/SctkXIjzQ7s82dfcGYsqNMzAgXTQZl0BAb7czKpOP08KfczgjZsUaEBbKFw+zh6biDBZIq7lw002FeIR2xOPPAmoevHxdy3QBaqupznowebJzlLuf5KXliTjjBulO/1UcsLaxi1yCROwfXz6wpknjfPSDWpSEqkPCAtgX9vvW25RS1+qz+Cy4UPlheYvrsS1JhNT00IkvMCTeNuZ0ZtZnbGZOyqz3QzvxtWGTee30RWYG8tpns4ukQEAjamOgG8kDbYvUKU5zqfHFqnr9tkbcRadAeLDlY4X/HxmPu3nJ+TeT2B+938Fpr14lgrPC1M5CInB/teN/dL9alIe4RyBcskMPizkUbr88psDzzyGB5/GOU+7+oj4/OomSTjy7EQub7y4vFnPqkQf80GrCmxFI7g5kWJNKIWyIpO9pRgbgAfEFxtsXqmsfB/CpqPiFHzHYbr87MN300h0yfGIu1HDmrPsEsaNQWe2dnHhiOszNyfrQSYYFs4jB7RLtAIA+0LVaf5wF5NIsSeYBJn5u/eW5H1klXHbkhkUE225ma9Rw5PxqpEYhcm0FxRCCvcpBNPG+xQD5igeBq1CgER2Srp2qxwHj/MD6qCbluBffjmB0foH0RMiJJQxY+JGJlYRWPAoBEpNxoxdudBSLUpSHuEcjnUSmQRvxF7LrQ+nUeeDLXMxN55iFku5UWk3L979544OcY7h2aIeZEmiYD02n0FusPal53uJIex3qVkB1tRFggGznMHjUCSeGdSY0aII++K4stPxXrALct/x6XLWa7mdm7y/x7YDzWpVSKGW6hycA0GrC6xHI780XWCb9ELsyOJrzd94l1aYgKxDod5hX4fhzJyjhUWEUPfIIjs5ztVv46OD2kX8nrurBQzHETDful0tD1Ryz/W2L9KkHIjSYiLJANHGYPz1vbo0YgmHl0X1RoeSU/iduWFpPQtsj5bub12fmmp/wF5afpSZx9EXLcBmYiY2y0M/vyTtI/R0fvTMTbfa9Yl4Y4IpC2HGSTaBFIAz5afbi8mCot/tQi2pYnxkbnFw37PmHbUdNXn25KraR7hqSLWW6k8YA0GrjGWjuDhdUvMk/QI59iMVzOdzM+gQh1aYgzAlnPYfbwvLUtKgTSbHw2HbO4YIq2JVq/YOD+YRm+IjEzIJmRm0rFHDeD2eXwjdbbmRVJFVHZzni77xHr0hAVSGgsDeHy7XMH5NEyStuWAM1Znrgl38zAwvLL0/LEHLdzB7czODtj5UHNEGerydH376wCqSfMPvvz3JFcVBXV/XGA3iuKyWxJ5Rw77StEKScaQDsziNsZK+tc47YeFTPdTGQF8so6sovnza0skGTeGVwL4l7yQvjxJAwciXfnnKTHR2VSQj85M1rYlmGufcGY/DmKSM6JBhr2T6WeSwupqPy0b30jlDGCWyAp081432GBCHVpiAokNGbsMn8JN1b0M45UU2JBlW9B8bnPcqhBlErkkU8zTK8LnOZ5/BNjMOOSs9xO08Fp9NGKIt+CN1rPYm7bzC4c4988Gvc9wgJZy2H28Ly5JSoE8uTYLN/t9kbj5KmzdLi4Rh4B1qUc9y3CSrluZ8i6Ev+eGQ+c0ozW2dbtA1Kpz8pi2pt78qt/tySWSCHPRIwkgpnK2K1YOJaz3UyNQOTaDIoKJHQ6L8CvydW9mIi2Ja3kfHkE2M5twL/4CBVNBYbp/KFCc7fuY4zcFH1TeAB5vLuk0DfzqP3vBolgJlJXO4P/vvpQBd03FKet5Xw3431nt1iXhjgikDYcZBPPGyyQ3iwQ3JEbBXSal+/rj2uPc9uWuthwmNuZSTmUgH88IdttPDvB/Klr/O5t6yk5Yo6baToo9au2Rfo3A752puLCmQjksTKpgh4ekSFmRwPebiwQoS4NcUYgazjMHp43NrNADvHOpEQN7WbmUsnxryWCtiWlVttSF2hnnhiTKea6jX4ri0yvfxzg9uWREXwUFnLcSiOeDfZeXnRe21IXgXYmMBPB/y7eX0Z3DU4Vs6MFb7ddYl0aogKxR7eFBVR28ozvmoG62pa62J5RSU+yRBr0lbPdwJ0DU2nJgfKaajEx5u4po4b95Cw30rj/Yeq+qCDozKM2kAiuh4E81iRX0P3D0sTsaCKyAnl5NdnF83p0CgR0nJvHbclx8ctmxLrk49RqUja3M3J2pMFsIpNbMjMDU/t3WKhSjhuBHI3almDM2HmM25bomm3VhU8gQl0aogJxhqfGZvqORtIXLRh4Hgjk8/go9M9ydiRpNzPP9ClMnL7929DoOBpj1vfBskJTbUttcPft0HUl1HgA1g/k/GhDBeICWkzMos1pleKXzgi0M0+Ny3JdO7Ngn/lnf0CEUobbaMKF/26IbUsAyAN37Ub7mkdtIiuQ/6wiu3he30S3fcgCweXsUQxmIssTQ5+JAMxgWk7kdgb/qEJ2fXPXoNSQnrTWdnqumOMm7LQtkMfw9SV0D+QhZEcz3q4sEKEuDXGNQNrHhkAAJIKzLNKX0IiNqcfpHzgdKOTWNx3m5PvVYDzw7I8GLhFfMN5fWkj7LLYtn7A8sOgq5UY7ERbISg6zh6f9RhZIEu9MckzQktsZyED6MhqBdqb5uEwuSDm7PkjgbePCKLMDZ1+kHLfQpH8Kty35lmceY7ccobsHQx5yfrTj7bpTrEtDVCDho5mNdgbF22JClphbHzwyPI1yj5l78jquEekyP1/McQN3DEihj5bLV5gaEZh5xLI8QIQFsoLD7OFpvyHmBAIgEaszkS1plfQgrjEQcsNN53n5pp+6llV6yte2STluoOfiAtqfZ61tGbGhxDd7kXJjiRqByLUZFBVI+EE7s97imgjamWfG128706hvCk3eXmr62R+bWJBNB7rvCI2ZRw+Wh9WZxzhuW2oWTOX8WMLbJZICeWk52cXTDgJJ5J3BQmrs0XxsBq1ILOcvJ46EobGK25l/j8HCqpztNPfwdH13tvlnf2CKL+VEksY8a/hgaaF/5hEaB/NP0rD1xXT3IEhRzo81vF12iHVpiHsEsj6mBQIgkS3pmInIX9xgrE+poDsHYiotZzvJ/xuV7rsozOyoT7mZ5c1ZubQv94T4WQbjIDNqE9oWHJnl7FhEBRIltJyYSWt9V6zKX+Bg4HVPjE6nhD5ytlPg6Gt2pJdUU8O+ck4kaNwvmd6em0t7rciDZx6+tuXj+Jl5BIiwQJZxmD3iRSCg+bgMWplkrZ1ZcqCM/jkyXcx1iuyj5n/39sNlhWJGJGjUN5m6L8yn3TnW5DFsXTHdNah+Znluw9vlC7EuDXFEIK05yCaeduviRiDg6fEZtNVGO3N3mL7oLSZk+tVgPHD6tmk9tVVGJDDtZ+ZYa1tYHmM2l/gWXaXseMAnEKEuDVGBRA60M2uSLS6s8gzmSbQzQq4dpnxe6teD8cDZl4ZhbqfMgLal07w8W23LvXHYtpyLt8vnYl0a4oxAlnKYPTzt1sadQADaGchA+nIHA4t9aGceHYHrROTsULlncIqvoMwMPAtj8JoixwUWKmhbui3Io13ZuIlR/qzqItC2/NUls6hIUiMQuTaDogKJPM9OyKBtGdbbmfuGOHP0fPGzrPOesBZslFaeoTZTs8Wc+qIBz37azcixNfNwSwsWaSIskCUcZo8agRzkncHFZPFHC5bI6kPW2pkViWXczqTxbEDONkNCnyQasKqQzpg8fYsCfGAoxCXnhZvG/Q5Rl3nWz7aM3VLCbQvkIefHGzUCkWszKI4I5EUOsonnNRbIByyQ3rxDccrTY/0S4S94KKAglnI78/AnqWKuGZpwQaKVMjtm7TxKDfDlE7LCDdZdus7PpZ1Z3LbU+iyMwGf1CbctTQcki9nxirczC0SoS0OcEchiDrOH57U1cS8Q0BLtDM7O1Prim2FdcoVvVpAg5BpxHx+NzbYvGG2ncfsi5IQbyOO16dm0F6dqhc8gGJDHeG5b/jpQ5VEbb+ftYl0aogJxHy3G+xdWaxWAGZbxTOTJUdzOCLnB6MJHdLMDoonEEbxxX3/bYkUeedy2bOa2ZTC3LUJ2vBNhgSziMHt4XlvNAjnAO5OoMM+MS6e1VtoZLhRI5IEhKBQ5W2JL2nG/HozHtC9KxYxwgnap01yLbQt/JsPXF9Ed/Q+J2UoiC2SbWJeGOCKQFzjIJp5XVSC1acXtzHaL7czi/ce46OTc2jw0NMWvBuOBRVbITcoJJ48Or7nBT9rXYKBtmbi1hO72tS1ytsIC6cQCEerSEGcEspDD7KECkUGxrsJdvLUKwwxNB5g74vZdUeDXg/E4VGA+10nemJkt7mMwMPMYvamY2xaVhxE1ApFrMyjuEcgqFUgdQCK43kMqkrqYvqOUEkzMQBr1SaINnG12IBevkbLCyYM8SwqlfcHM49MNxXSnti2miKxAnl9AdvG0XUm3vc8CwcVkygU8NzGDtqYZtzP4acm5u4/SPZiyCzm1wYKr2R+Owk93YhFTygk3DfhL3mlODu3MNJYIZh4Ttx4x/RkoEMhWsS4NUYFED2baGcjjseGHxddLdJqb4xODmZFztNonHCmnPmjMM5/OuFU/yFkYyGPURm5bBqk8QiHCApnPYfbwtF3BAtnPO3NQCcKz49Jo02G5ncHC6T0DecouvE6iQe+DNP0L8zfPbU6t8M0EpKz6Att/dVqmKBHIY+SGIm5buMUSXqvUjbfTFrEuDVGBRB/PT0z3FfO5hTNn11G6/2McdeXXSDTum0jJhVV+PRiPD5fkiTn1TcOPErmVOr+dwWcwaWsJzzzMC1T5msgK5Ll5ZBfPKyqQUMBMZFVSmW/NY8r2I/62Rf7bunh2fJrpe1+qT5+lh4aGJqhw0rhPInWcne27+hazkeHriugelYdlvG+zQIS6NEQFEr3c0S+JmvJ0/XYuJun/N2L+nmN+PRgPFKqUEUkSuAULfAaNcMZJ+BvFHBEWyFwOs4fnleUskH28M1hIVcJN0/6JVH7S3O/e4tkfXedlizlKbOB9e7NYl4Y4IpBWHGQTFUj98ubMLL8ejEdh+SluX9AeyFlK9OMTiFCXhrhGIG1YIO+pQOqL2TvNn31ZnVRGd/KMRcpRYgNvx4gKZA6H2cPTZhkLZK+4c4qzPDTkEO3PNffDUfh9mIErCyiht5ylxAbejpvEujREBRJ/tJ6cTqWV5p79cYT/Dn8v5SixQ4QFMpvD7OFps1QFUk8MXGX+5rm04iq6s5+2L7GOt+NGsS4NUYHEH4v3mT99O2FLsZihxBaRFUjLWWQXz8tL6LZeLJAP9ithpt/yPNP3vzQffVjMUGILbwcWiFCXhrhLIHvEnVOcpVHvA9R6Ujot3HuUyk6coeozX5J0PWpqUZX4eiX2UIEolrhvEC4Jz6Jpn5fQ7uzKry4uqz79Jc9U8sXXKLFHhAUyk8Ps4Xl5sQokgiR8uJ8e/DiJWoxLpT7L8qj7/By6C9d+CH+rxB7eDhvEujTEEYG04CCbqEAUJXL4BCLUpSEqEEVRIiyQGRxmD8/Li1ggu3ln9imKUs94O6wX69IQtwjk8tYL6FYViKJEhOvfXCvWpSHOCGQ6h9njm8/Noj/02CnunKIo4eWatkvFujTEEYE8y0EOcFOnTfR/uKVfUZR64489dtF3Xpgr1qQhzghkGofZ5/IX59GfsJAq7KSiKOHhxo4b6JKW3I4INWmImwQCrnt9Ff0Z98QIO6ooirP8scdOuuKl+WItmsIZgUzlMGe4tNUMbmU28s5BIoqihIu/vLeHrm6zSKxD0zgikGc4yEEu5enUjR3W0609d4o7riiKPX77znb67n8WivUXEm4UCLiEp0fYQe9b63w7+2ec4hU+CEVRzHFrz130i85b6Nr2K+my52eLdRcyzghkCoeFh4t5mvSNFtN4VjJdURSbXMK1JNWZZRwRyNMcpChK/OGMQD7jMEVR4g4ViKIolnFEIM05SFGU+MMZgUzmMEVR4g4ViKIolnFGIJM4TFGUuMOmQG5kbrmoGQcpihJ/oP5tCOR/mZvFYEVRYh/Uf40H4IOQBHId42Vu/sFLMzhsoqIo8cZFF/3c7wH4AF4wFMh3mR8y1zI3MDc9P2oLXYx+SNqAoiixC9e/3wPwAbwAP1wgEIxLmcuZq5jvMz9m0PfcmFVynH7Wfg5d3GwChyqKEjfUrIPCA/ABvAA/wBPwxXkD/+EyxsNcw6DfwbTlBvyS2Z7MUrr7gxV0aXO20lMcrChKTHNtG9/POmD2AQ/AB/AC/ABPiAL5DnMlgz7nBwysg8UT9ECYymBBBad1fs38lvk98wfmj8xtiqJEFbcyqF3UMeoZdY36Rp3jzAvqHvUPD8AH8AL8AE9cIJBvMN9i0N8EZiHoeX7CIAQmwmpsQCS/YLCxX/nBxhVFiS5Qu6hj1DPqGvWNtgX1jrpH/cMDVzPwAvwAT8AX5w0siARmIVcwWCwJSAQGwjQGvRCCYSbIBJZSFCX6QT2jrlHfP2VQ76h71D88AB/AC4HZx3kLqIFxCYPV1YBEsGAC82DxBKdwEIjVWIQDGEpRlOgnUNOob9Q51jzQtqD+4YGAPOAHeKLOgalJQCKBdgb2QRBMBJkgGMBOiqJEP4GaBqhz1DvqHmse8EBAHhe0LtKAYTBN+TaDUzYAIbAQAiEVRVFik4A0UPc44wIPwAfwgti6SAN/CNvghQD2weKJoiixD+oddQ8HANPiqGsgQFGU+MFgXHTR/wfSEvUzMAY06gAAAABJRU5ErkJggg==;fontSize=10;" parent="1" vertex="1">
                    <mxGeometry x="260.90999999999997" y="322.7900000000001" width="32" height="26.12" as="geometry"/>
                </mxCell>
                <mxCell id="5" value="Azure &#10;Functions" style="shape=image;verticalLabelPosition=bottom;labelBackgroundColor=#ffffff;verticalAlign=top;aspect=fixed;imageAspect=0;image=data:image/png,iVBORw0KGgoAAAANSUhEUgAAAHYAAAB2CAMAAAAqeZcjAAAAAXNSR0IArs4c6QAAAARnQU1BAACxjwv8YQUAAADVUExURQAAAECfv//PEP+/DTiXx/fPGDqaxfrPFfu/ETiXw/vPFPvGEvzBEDmZxvzPFjiXxfrPFfy/EPrLFTmZxvrPF/u+EDiXxfvPFvu9EjmZxv3SFfy9EP3MEzqax/zSFv3AEDmZxvzSFvzAEP7FEjmaxvzSFf6/EP6+DzmZxv3RFv2/EP2+EDmZxvzRFv2+DzmZxvzRFvzMFPzFEv29EP2+EDmZxvzHE/zIE/zJFPzLFPzMFPzNFfzOFfzQFvzRFv28D/2+EP2/EP3AEf3BEf3DEf3EEv3FEhNGNdwAAAA1dFJOUwAQEBQgIDAwPEBAR05QUGBgYGNwcHKAgIOPj5OVn5+ir6+xub+/v83Pz9rb39/n7+/w8vPzV2Ov0wAAAAlwSFlzAAAXEQAAFxEByibzPwAABXZJREFUaEPtmm1/E0UUxbehjVagqEC1SLFVhKrBqiWt0AQQ1O//kZyHc+fhzsyd3c1s+qbnTbP5bfafPck998403a1uFWjvS6avHye6h3Mb6pt3TH+9TzQB9mfQnD6C5fU9Tm2ozwBzegOW1293cG5DJR7/A5jXVzi1pV6BRroGy2sCi7sD0JwuAXOawuLuCWik9QfQnKaweMY9Tm72B5zZVNzj9d+gkS6msLg7BY6UVM9jnNhUs9+BI30CjfQCJ7YV9/gtaKRpLE485lHxLc5rK+7xilXPNBZ3j4Ajseq5+BznNdZPwEE8KqaxOGk+V8BBL3Faa/HmEzfaqSzmzYdFxXc4q4X2j4538TDxOI6KlyjZ+eHJA/tovB4ulfZxwDyOG+0Fxqf9c/WKQ/t4rA41dXmCI+bxvwBakcUn5iUbcS11ubBHLBjj6vmVUvHMvuYIhyN0ZK9Al2DBGEUFWexfRBYN1jEucLZjDlkwxo02GJ+e42XPcTxMO4zKPY6qJxqfNuEmVO5xVD3xImA8N6Uyj6Ob5RPqWO6OLYOAyptP2GjTCZXe9DBuhsqazwpEo8yEOoabo+6BB4XVk10EuA8Jx3XlqCwYw6goLAKSL0dFWSrzOLzZ0iJgGDdPZc0niIry+DSEu4NMZSfHHgfVI02olJOLKrdAZc0niApxfHJc17Lz2l3gREaNgzFotBcvCrK5RdzzuTksqERlHseNNiv6xNE6Re68RI1Xl3wmz8gXVZ1bpDKPkxVtqqCoaty5HoK0EmrcfJIVbaoot2SuQI2bT2bzi8kNOFZmDFTKcQUq8zjd/GLyAw5EXDeCOknU2ONk+Z4oHdP3cXHONcOtVo4ae5xufjHlVkJ5rkhNVpfqWwWtoOvra/du8iuhHFem8tVlVr6WCw0p5VaoydZmTv8BWt7449wKNVld5vSWblbY+Iu5NWqytZkTtaSkdkKFXLFytPp47IqqaLFRwKVZwn/UTH08pptl8ZSI5o1FRze7LNxsH49pC6O6i/AArGVHXWdZGADYyicn1xuqGzXUFRbdfTwqLQz3vrA6gPA/mEdBclEjrO6F7ZK1atFNfg9bgAcmUFIItWPl5jSzXnZfqiHcoDtQUtQ2zWOqW/Yvlw/tcQ8F3YFuVq6dYE6ju3Nvoz838BjFU6udhBp81L253mMkhRhPSo4ablnN8VxfbuAxbrayA5elBrHFni/Ie4zBqrLJSdRzfnV/v324zmMkRSWeitRhXO8xkkKuHYEatKI613mM1bVcOyJ1CNd5bJNCjqcK1Z9Q4zqPbVLItVOlhrkhct0kaadF0WJaVwnUvlzy2CaFGE+9qP24M1BtUoi105Macu/jmUTksb1ZqbU7avFaXrRfWByuMK2vzRJMau1DqFUubceZpJBqZxg16PtZLjy2SSHE01BqMOfkuPDY3KxQO8OpIhfTukkKoXbGUP1+UsrFtK73iIR4GkcVuNZj80/qcmuneB9K9ZM048JjnRTl1j6eGnCj/RXrsU6KcjxtQvULlmhfx/xoySRFsXY2o/oBK+Baj3XxFGtnU2rAxTE81klRjCcK9fFUz3VfK7PqVDdbrh3MZJtQHZeuYTzWSVGOJ4vdjIqruE1347FKCqm166DYlKq4x2cn7iulPVZJIbf244V/QRMZj1VSTPTzipK0xyopJvoFS1HKY5UU1VV7Y+nFwFV91d5aymOVFPLKYwIpjy+rq/bmUh6vPtRW7e31TCdFy9/N9NLslUqKqX6aVJby+FN1U7G9TlVSbLt29KJ2/XHrtaM9vtp2PGmdrl9vvXa0x5c3YHF3sPrlBizuTv/cfu0oj//Ycmu3OvgRD7arpzfxwXZ37uLBdjXD31vdqqKu+x/OMjqKGbeYfQAAAABJRU5ErkJggg==;fontSize=10;" vertex="1" parent="1">
                    <mxGeometry x="435.38" y="319.82000000000005" width="32.06" height="32.06" as="geometry"/>
                </mxCell>
                <mxCell id="27" value="" style="edgeStyle=none;html=1;fontFamily=Helvetica;fontSize=10;fontColor=default;" edge="1" parent="1">
                    <mxGeometry relative="1" as="geometry">
                        <mxPoint x="170" y="205" as="sourcePoint"/>
                        <mxPoint x="240" y="205" as="targetPoint"/>
                    </mxGeometry>
                </mxCell>
                <mxCell id="103" value="https" style="edgeLabel;html=1;align=center;verticalAlign=middle;resizable=0;points=[];fontSize=9;fontFamily=Helvetica;fontColor=default;" vertex="1" connectable="0" parent="27">
                    <mxGeometry x="-0.3738" y="1" relative="1" as="geometry">
                        <mxPoint x="13" y="-12" as="offset"/>
                    </mxGeometry>
                </mxCell>
                <mxCell id="8" value="&lt;font style=&quot;font-size: 11px&quot;&gt;user&lt;/font&gt;" style="sketch=0;outlineConnect=0;fontColor=#232F3E;gradientColor=none;fillColor=#232F3D;strokeColor=none;dashed=0;verticalLabelPosition=bottom;verticalAlign=top;align=center;html=1;fontSize=12;fontStyle=0;aspect=fixed;pointerEvents=1;shape=mxgraph.aws4.user;" vertex="1" parent="1">
                    <mxGeometry x="120" y="191.76" width="20" height="20" as="geometry"/>
                </mxCell>
                <mxCell id="63" style="edgeStyle=none;html=1;fontFamily=Helvetica;fontSize=10;fontColor=default;" edge="1" parent="1" target="36">
                    <mxGeometry relative="1" as="geometry">
                        <mxPoint x="579" y="300" as="sourcePoint"/>
                    </mxGeometry>
                </mxCell>
                <mxCell id="10" value="Azure SQL &#10;Database" style="shape=image;verticalLabelPosition=bottom;labelBackgroundColor=#ffffff;verticalAlign=top;aspect=fixed;imageAspect=0;image=data:image/png,iVBORw0KGgoAAAANSUhEUgAAAIIAAACCCAMAAAC93eDPAAAAAXNSR0IArs4c6QAAAARnQU1BAACxjwv8YQUAAAHIUExURQAAAABwv////xyAxgBwx////yOHzQBwxf///yGEywh1xgBww////ySFzQBzxv///yOFzgByxf///yKGzAByxv///ySFzwByxf///yOFzQByxv///yWGzgByx////ySGzgByxv///xd+yySGzgBxxv///+v0++Xx+iWGzkeZ1gBzxv///4i85CWHzqbO6wByxv///yWHz6DJ6bnY7wByxv///yaHzwByxhB7yhh/yyCEzSaHziaHzzCM0TSO0kCV1EGW1U+d2FCe2Fyl22Cn22qs3m+v33Cw33e04X+6AIC444O8A4W75Ia9Boe+EIq/CY3ADI/B5o/DIJHCEJLD55TEE5fHMJjFFpvHGZ/JHJ/K6p/LQKDK6qPKH6bMIqfQUKjP66rNJa3PKa7S7a/T7a/UYLDRMrDRNrHRLLLRLrLSMrLSNrPSMLPTO7TSL7TURrXTMLXUQ7fX77fYcLjUMrjWTbvXVLvYWbvZ8LzZXr/aW7/cgL/c8cDbZsbfdsfhj8nh883iiM/kkM/ln8/l9NXnnNbp9tfpr9jppd7sst/t+N/uv+Huu+Lv+eTw+efyz+jyyez01O/23+/2+/H3/PP54/f77/////1nSnsAAAA3dFJOUwAQEBIgICQwMDY/QEBHUFBYYGBpcHB5gICKj4+Yn5+or6+0t7+/wMPGzc/P0tXc39/j4+rv7/HopJZIAAAACXBIWXMAABcRAAAXEQHKJvM/AAAHGElEQVR4Xu2a7VvTVhiHobIps8I2X8ChaKfdujEnbqPtOkppCyurqGCLFIY6tE5XkNUJoxswcSIKbOCgkH935yS/JCdt0+a0px+8rtyfktPkee4+OS9J2gZ+HEdaT3Z0drrc7q6u7h5Cd3eX2+Vydba3O53v4KA64XCe7HR39Ujl6SYuTgdOEYijtd3dhRyW6HGJ9HA427my6/R0OBGjFhytrkqVL4/rZE3FcDhLXPn9NxvPV1YWZmYymcxsNpudz2ZnZzOZmcdPFv96+fINjmJxf4h43DgK67+/8XxxJpOdL8/sY6KCM1S6OxCTiyMdhgLsv1ysmJxlZuFvnAk6eIerwyDwmi+9yszCPwggw1cJZzdOI+z/kUHIKvh5cR9hCD0c46NdL8GbhWq+P8sTpoe2I0FFOnECqUDNApQFRCO4kaICHThckjZ+QZAayW4gIJkmkKQsrTiYGIgogQzj0Io05dAmg/+EGczPz2kdogdpyqAXYRGnC+FXBJWkylOl3hMe42whzCCoJHUikTmf4khJWsDZQtCr8AkSmfMljiS9EWcLQV81vkYic77AkYQ/cHoRc/fu3J6YSI2PjyUSI4lEYmxsPJWauD39CJ8X8ztCEr5CInM+xpGUPxFAY256YnzkxtUfzLmWGEtNz+FwDcYg/xkSmXN+FMdSXs8ixvz8ozupkWvIU5GridQd3SPzHOEoUx4kMue8bw0Hy6zIEtOpGwjOwcj4PXpudoVZqaT1PisKfoODtPKwmvwKV8cfGgSk9f5eKwqFDtLus5sIycnNpR2EAMTAmoLPx/YHmYMXTzk1bt59UZCf9IO+XssKvuAmzmI4eLF09xYSlOP6rbtPi9OTEgwSAesKPl+shARl99XS0oMfb11HPgaS+sHTZ1s7BzjSSH6YloBLwVwCHOzu7uxsbb16tbW1s7O7e1A6M1hVBfgUfL7QJCLUyGoY6Sl8CmRwxJYRplryq0lWgF+BEpncQzhu8rkh7QKoVKNAiMQmC+aKyqznkuGi/IQqFWQse+TNssvUoiATCEVi8cnlUoMlv72emxqOhvtNs8vUrKDj9wcCwVBkYDAaDZO0feUT6whUAN8ismVsBYqtQLEVKLYCxVag2AoUW4FiK1BsBYqtQLEVKG+tQjASG11OpyfjETTohL4fnlrN3U8O9SMD6IvKFLRSqlEIsU+S6QBaKf4B5qNcFDlkokrjfewy8CsECx5lg2gnxAoe+un7NBWBCsHCdwuagr/EKxjlhRZFnIK/6O2GqhAo+aA/jDwCFbRvurmMB3oo+E1eAKkvdYQpqEXYVBIHYppCXPlAkv7NJcNDyVXsSXkkEqYQUgIxfTCmbIbUC5T+Tgk8jH01qTAF8q0pa9jVSSsfSDFtagrn0aQMC9EKe9jVCCjtUpqZHYfQpvRIYQoRJZBUOCuqPYFcFX2C3lbatuUdcd1RCSTtFThgOJAiMApqGeQrIUxB/4Vm1DAxo5GK6Qp9aJUnanEK6pAgjKKJEEQT1dIVetEqdwZxCvrcRIihTROj24wCOkOSbgtUMDishZS2AWV3k24zCpif5LQiFYw/EimFwFgtVMgpzVN0W6iCcbmO0xaMVXm6YBTWleYhui1WgRSeeeVMJ2h1uvCT7eK+IK/YohVI6TUJWn11cqRdQ1dQB6W8WIpXYLoEKYM6L9CeoSsMolXw1MSgOtD5CKsU7Qy6AgbEqrxTFwUf1mf61TEqaefUFNQiyL1RnIJ+n0DAwkDHhLZ2BDWFPhQhr/wuIUxhALdLFPUOaoDuaBNWBApRDAdlbhSpQFZDzIh+9S5FXq/82gj5aTjcGx6cUm9YtvHjDBRy/TrKB1UoECbj8Zj2QyHuoJj1iyVfcPvKArmqFAyodw6YpI3ktQeJOiroS3aJOuSV0UCpm8Ketl4Tiv5gsFr8QMdSnULA8NC2F6eLAgO7dhh/GxenQIiMLq/tSXtr6dGBAgFKKP4b1kdpHSkU+pNF4BN+hUqQeQESRgdT6qLQB4dt478ETKiLQm8/JiZtVihHfRR6w4qClDe8aSlNnRT0AVDZoV4K2lKNtboMdVPQn+61Fy0m1E+hN6yCfTPqqGAVW4FiK1BsBYqtQLEVKG+FwkcIbRVuhXNIZM4HCG0VboXTSGRO4zeIbRFeBe8hJCrDCcS2CK9C5SIQLiK4NTgVPBaKQC7F54huCT6FS5YMiAPPwORSsFYDmTbEtwCHgveUdYOGhsOWL4Z1BU8zglvlxGXkqIBVBQ9XCUDLWWQpizUFzzEE5eWwBQkLCt5zvJfAQMvZCrNlJQXvheNVXIECjraV65tlFS6dbq49v0JjS5vZnGmm4PWcOV5T/UvRRDyKh0mxgveK58wx4dkZmo62tLWdvXj5MvoIFLxe75VLF86cer/5XVGlt0RjY1PTe80k6aHq0zY0/A+4uL386om18wAAAABJRU5ErkJggg==;fontSize=10;" vertex="1" parent="1">
                    <mxGeometry x="560.2" y="313.88" width="38" height="38" as="geometry"/>
                </mxCell>
                <mxCell id="111" style="edgeStyle=none;html=1;fontFamily=Helvetica;fontSize=9;fontColor=default;" edge="1" parent="1">
                    <mxGeometry relative="1" as="geometry">
                        <mxPoint x="390.91" y="390" as="sourcePoint"/>
                        <mxPoint x="420.91" y="360" as="targetPoint"/>
                        <Array as="points">
                            <mxPoint x="390.91" y="390"/>
                        </Array>
                    </mxGeometry>
                </mxCell>
                <mxCell id="19" value="&lt;font style=&quot;font-size: 10px&quot;&gt;GitHub Actions&lt;/font&gt;" style="dashed=0;outlineConnect=0;html=1;align=center;labelPosition=center;verticalLabelPosition=bottom;verticalAlign=top;shape=mxgraph.weblogos.github;fontFamily=Helvetica;fontSize=11;fontColor=default;strokeColor=default;fillColor=default;" vertex="1" parent="1">
                    <mxGeometry x="352.90999999999997" y="393" width="25" height="25" as="geometry"/>
                </mxCell>
                <mxCell id="28" value="" style="edgeStyle=none;html=1;fontFamily=Helvetica;fontSize=10;fontColor=default;" edge="1" parent="1">
                    <mxGeometry relative="1" as="geometry">
                        <mxPoint x="278.32" y="240" as="sourcePoint"/>
                        <mxPoint x="278.32" y="310" as="targetPoint"/>
                    </mxGeometry>
                </mxCell>
                <mxCell id="100" style="edgeStyle=none;html=1;fontFamily=Helvetica;fontSize=9;fontColor=default;" edge="1" parent="1">
                    <mxGeometry relative="1" as="geometry">
                        <mxPoint x="320" y="205" as="sourcePoint"/>
                        <mxPoint x="410" y="205" as="targetPoint"/>
                    </mxGeometry>
                </mxCell>
                <mxCell id="21" value="&lt;font style=&quot;font-size: 10px&quot;&gt;Static Content (client)&lt;/font&gt;" style="rounded=0;whiteSpace=wrap;html=1;dashed=0;fontFamily=Helvetica;fontSize=11;fontColor=default;strokeColor=default;fillColor=default;" vertex="1" parent="1">
                    <mxGeometry x="246.40999999999997" y="180" width="61" height="50" as="geometry"/>
                </mxCell>
                <mxCell id="69" style="edgeStyle=none;html=1;fontFamily=Helvetica;fontSize=10;fontColor=default;" edge="1" parent="1" target="36">
                    <mxGeometry relative="1" as="geometry">
                        <mxPoint x="490" y="205" as="sourcePoint"/>
                    </mxGeometry>
                </mxCell>
                <mxCell id="23" value="&lt;font style=&quot;font-size: 10px&quot;&gt;(api)&lt;/font&gt;" style="rounded=0;whiteSpace=wrap;html=1;dashed=0;fontFamily=Helvetica;fontSize=11;fontColor=default;strokeColor=default;fillColor=default;" vertex="1" parent="1">
                    <mxGeometry x="420.90999999999997" y="180" width="61" height="50" as="geometry"/>
                </mxCell>
                <mxCell id="36" value="" style="shape=image;verticalLabelPosition=bottom;labelBackgroundColor=#ffffff;verticalAlign=top;aspect=fixed;imageAspect=0;image=data:image/png,iVBORw0KGgoAAAANSUhEUgAAATIAAACACAYAAACIs+UPAAAAAXNSR0IArs4c6QAAAARnQU1BAACxjwv8YQUAAAAJcEhZcwAAFxEAABcRAcom8z8AAB9JSURBVHhe7Z0JmFxFtcc7yUzfpSeCICqLBDCQMJPuu/UkEZI3JNN9t54h6DOgoLwHCIoP4akgimAUFET8UFxRUdkURAXB9wREIoKAIIuiwkNlkUWWsElCYkIm8/6nurrn3t6mZ6Z7ZhLP7/vO1zPdVXXr3lv1v6fq1pJgGIZhGIZhGIZhGIZhGIZhGIZhGIZhGIZhGIZhGIZhGIZhGIZhGIZhGIZhGIZhGIZhGIZhGIZhGIZhGIZh/tXozu2uGN4Buu27nQv8TCKxcpb8hWEYZprT19eRNL3jNSf4nW4H61NOuFG1w8c10/9OYt/c3jIUwzDMtGWGargfT2ULQ7MXHTjc1TtQtIWDw12LVgxrVnCzbns7y7AMwzDTD6UHTUkrfKlrIUQsW6gwErXBYdUOTpHBGYZhphl75bbTLP+62iImDUKm2f6DSia/p4zFMAwzfVAz7olFrwtWS8TI8FuKvDLTXyWjMQzDTA/0jG+l7PDxht5YyRauGNbtwv0Jo28PGZ1hGGbKmalZ3oWzmxGxkvUODKGJ+X4Zn2EYZmrpXOAdrGcL66j/q6Zo1TLR6e/dkZjfv6NMhmEYZmrQ5uV2US3/d001KaPWOzCsO+Hmzox/lEyKYRhmSpihWe5nhCc2Sge/ELrKcPhOs8JbUpn862V6DMMwk0tHOrdYs8NnZ9Ng16hwRY3eUjrhk6rhf1w1vS/AC9swuyRm9Fu2sFk13cNlkgzDMJPInD5VtbwrR21S4nfdDr8u4nSvTMID+3k0Dr0gUK3gusTOji7CMAzDTBaK4R6Xyg4MjdakTGXDLfDajpfREp0Z9xB4aBvKLwYQRreCDckFfiiDMAzDtB/Fcudqlv/QqN4YxAoi9rya8ZfIqInEbos1zfZv6OqNxEU6muH9NOEMsFfGMMxksHKWavtfLnbcR0SrhlGzEU3JBxJzl+wkIws6M/2HpOxg84hXNjicssMNScMryCAMwzDtI2n6IZqLzY0Zg9el28GPEW1GMbak290B398WG0C7kKYted9JJFbNlKEYhmFaz+ze/h11K7h99qIVccGqZxA7WtJHRo+BpuR/pZzClnIfG4QM4rZG6/F7ZRCGYZjWo2a805ppUgqjjn4nHE6m82+X0eOk/d00O7g31s8GD061vK/JEAzDMK1FTy+34TE9JhZIjApWPYPgIfzTuu06Mokqim8+KWxpXNngsGb5azoW9L9FBmEYhmkRNP7LdH8w6lvKiNHqsLoT3Eb9YTKVavZeviuaqg/ExBHHUA3vS/g13q/GMAwzEZRM/qiUHY54Ts0YBEmxvIsQvaEgKaZ/RnEoRjFtegGg2+FfIYBzZRCGYZiJoczr20Mz/QeaektZMhI8GDyrk2QydenM5Bdotvdo1CsTCy9afs2XBAzDMGNGM7xziiI2Bm9MdPQHGzXbf6tMpiGakT8nJV4gyGOQV2b5DyX24eWwGYaZIIrRf0DKCV+MjcJvxqjT3g4e6+xxDZlUQ5Ldy7t1238y3gcnPLpTZRCGYZhxkC68VnOCm5seMxY14VEFtyd2X/Jamdqo0LCLmJCJ5bDD32tWbhcZhGEYZmwkTfdEfbSNROqZGNEfXiaTago17S3V4f2VlwSi4zqFV3Ve4odhmHFRbOo9OqYO/pJR/xgEULP8D8jUmmTlLN3yLi16ZZG+Mju8JWGs2F4GYhiGaYK5vqKYwcXUtKsSqWYMQgbxebUjkxtZ8aJJFNPLic19SwJKXlnvwBbdco+QQZgJ0DV3yU6qmetLmvmAdr2SXzPMtoeadg9NOSQi4/DGyBBPt4K/qlY4RyY5FmbpZnBl7OUCeWWm95su04+toMGMDdXI76/Z3q90O1iHJvxQyg7/rmXcsxOZfEoGYZhtA7XHfVPKDu5qehpSLRPCE1xNK8jKZMdEMu2tgFe2SXhjlB41VZ3wVdXwDpZBpiMzaaiJavufUC3/ZNX0TlMs75P0qZr5j5W+w+8n0hZ4qlV4B63RpqX93WT89uI4nfB2L+laDC+bHlB0bXGf6IGFvL1DhmKYbQPFoI1EpICMxxBXrEFm+p+TSY6d7r4uzfKv61oU98rg4f2Qmr0y1PQCQqFa3lUpeJI0d1QYREIXf4cjf+NT2hZaf023/T+opvt1xci7bV2+qNvdAdf0VrqOI/cL9xnXmGZWyFAMs/WjZfKLNDt4ftxNSjISQacwpKS998hkx0WnFRyC5s/6sqjiU3cK65S03y+DTC9IyEyv2CSmPDdr5PmSB+uEa1UrOC+xT9/rZIqtxXF03fSv7qKhNJFjk+Di4cX9j8w2gtG3fcr0r40/scdhEMGUE7zY0R1Z2no8zNtvNjyI1VWTya3gymnplQkh839c8yEQFa6SVYah84QIIo0fNZxkPwHQZD9Qt4MnUlm6R/RmGV4ixLddx2OYSUcpLnJYu5KNxVAhVdu7T826b5JJjxvFyB0BURzJE71EsIP1ip3zZJDpQwMhSznh5i4nHCobNenojXDltaaHAH5Lmt7HZKotpzO9zMHD4EOqGXyMXuok0s0PWGaYaY1iL3szmpR/nrA3Ria8Jv+qRHd3UiY/fub37givLL7wIoRSs9wL8Ov0Wg67lpBBqGgPT8XwP58y/MN0NOF0w/tPLe2dAEH+ccqGwFWKGQROs8I/6fOX7ixTZhimCWZopveNlogYVUqYZgTnyLQnjGIEx5XTFp/CK3ui02xuDuekUUPIZlNeneBlJZNfLkNFQPhM/kN6NnglJmbCKws3QvDim7CgqZ0gcVuw/A2J7r430vQx+csIfX0dnen+NMR/EPfgIOSnr8sZGOlz2yu3nYg7199JbAazJ9KiHd67V47+0En37UYLZNK5oLysoPzB817amem3xJtXHFuGrIb2K6XjUN7JxK7yFS82uhfvQPdUz3gepZ+i8YRpzxbh64GHZXKBO1+xA+QpXKGbfqha3luUnmVvliHGRndfVzIT7KMawf665fr0llyx8eBBfnCOixPWMhpOxGvkTUeShnsQvIbmNhIZzVAhaSCsYvlHyuQnjD7f21mzgrvjXhn1JQW08OL0ob6QrU2aQSBDVTJDs/3L4w8RiNqiFcOq439UhhHoaG7qduG3EPFbcY3vgNf73cT8/h3lz4mOHr9XM/2LNTt8DE3ZIYjhkG55L9BGMTLIDNrpHff6TpGGFf4adgcE4MYO091PhqlkpgJh0c3gfMS5S3f8F1J2sCnl+JuF2cE/8f0zOObddB7JdO6EZE9u38TKlbNkfIECUUCefw27Dce8Hffzlg4IjviRBl+ng6N1p3Aj0np6JO1wE9J9Dud8K67rR3U75qHOSC7oL0BgLkO8RyhsygmGKB7SeAXxHkxa7lcSmb4FMnx9Fi/WlEwO4umejXg/Q/yHcP3WI71XRZrZgPp8h/D9Wvx+H/J+4axMvy9jM9MCPBnxFPttS7wxMlRcNFHXdrZ4xDgq4Mmx/jvkF5ViTaeRN2WQqaehkNXfeBiV43ghXlGvbOFBNL3rTBmEmAEB+F7XooPEudOnbvsvQzwW04+amV+JivaE+E28NEBadI0s/6WoN6hY3oVdi2UaMp2UXdiczPiDMsgI3e4OeFici+v8Mr2EELtd0blR2jEbxG/4HpbC/7oVPFy50TKuweHF460oGuJA3E4nEcM1+wr1C9ZOn9I+UKxNh3O9oTTmLmm6H4Ygvxw736hRXmAQnYeUTFDDGy6iGct3VS33hyR+lPe66Qmjc6Tf0fTHNaGHAk2pk0kxU4lq5E8VFYduVKkSTcCoQFNfW6LVI/D3WbonCuVjojCVjodChcr+eRli6mnQtKTpQDJUFfC03tNV+ZKFKovpfVoGIWakrOC75bQRNpUtDKkZ791iqpETPiMEohRfhMGxrfDxzsh+CfDiviUqaiQMhGxdldDCo8L1PqdcsWPpykotTFby0m8ID+F7lpq3MiVByvYPK8cVn0JkblFN93x6c1o+hvg9kl7J6HukDSG+VE17HyERF3krPQCieSgbvoNQa1b4RyWztPaadmhKqhDI2fSAKB+3lCbyJERNnmc0bRwbXtsWNGM/wmI2xXQYyxfiKfecuFHRmzQRw5NbM4ILG/aXjBPk9exi4ZXHEpXGfzAx3v6QVtNQyOo2LUlcTi7GiVSWose1SgYh4kImbIAGCP8c4e4fERtZAcmoEjuFvySyhb1kGk0LWcruTyPfL8Wutwgvug7Q5Auex+eLEKjNpXRKx9QN0eSP9SNVCRkMzbUtNFC4LBr0SYJeSi96PcR3YnYHbeJc3D6QwiyMxqHvKuMUv4fXVXelYfEgyIbrhEcozpeOEwzB63o+ZRX+inN9pphPylMkbVxH/PZCZ7pQd2Mdpt309al4EsUqXSuMRrUnTe8EeZSWQstho/L8Lfr0piYJ9Z/IIFPLeDwyeARoiq2OCQadF0yx3aNlKKKGkJFFKq+oiBAm0b8DkekdfAlp30zjA2UaTQuZYuffnyKRiIoJjqObwTU0rUoxvD2UbneuavW/BZ7VcfBMqHn2LI77smqGVf1ttYSsnHfkAYLwf+Rd64Z/jGp7JyGfNyLMyH6nJRPhi3FQFp7B9T5fy3jvQ9wPKKb/A3ig/6yKg+uCh+D/iBcOtXAGdNSFnyDv/xDNV9M/g2ZZKD3+m6l/VkFrQDXcwzTb+xPdz5G0i/lQrQBeGTMl0EhuuPSbqivGBAwFCE+yjUmrRn9Li0DTAs0d5LlUWFFIdct/INEz8TFrE6aekNnBWsWqno2gdud2RyX4Gs2CiFY+0SfkhC9pdn6RDErUETIyqlBizuSDOM6ZScs7UHUGliAvfWi6QVRGmj5NC5nlfSq27DjdW/ytpvP/IYNUMoOOpRq5g2vNr60tZMX/afHNyqYozW7Afb1ReEnR8DDqvsD1eTLZ4w7I0JLupJJxzxYzK6JxRBnx7kvgesuAVXSmPVsxfBf3sLbYAXqDiXu1YeQc6LqLfSV+ip95Z/zJRpnn7UFPl5gX0AIrVsDCo7RktTxUy8HTshdP3zUjFRqFCQVbN73TZJCpo4aQCQGww/XULE5lg0NSvcGhmhO8D03Cb6KiPlgUiorKjesIgftJhSDUFzJRmcIbkvOWzZNh69KskFFTLCZkIiytLxdcR56xDNY0NYWseG02FOeYVgMP6yiUp5jIizh0vqZ3igwWg4ZO6E7h8ZgAinMMnkyaEyuXqrVsDnVlxO4BiaQd/AZNnJZ3pTCNwZPTO1fcjGgBaYXRTaWmzF7OdvJY7WCGZnnfixYmWoYbhekPLX/BMFZqCVnZcK3pepeMKhpZxT2gCogm07pkuqopWlvIEB7Nskc69/V6ZLiGNCtkSSs/qNds2glv6GES5k4jbPqNcU0hoz1PrfD26BCSKOTh4ThPx84Z8XGvn9PSOfG2torulUl4TTcWO+9Lcegc/afGJWS4p8JLgyXN3N641veI+1ZKm+6Xg3NgIZtckgu8AgrCy1UFtBWGAqNZ4bdwmLYOGFSd3BLqzygXcJwLdRwrZm5Ck9QnzGhCFrOK3+l+UAVxBrbgQUPTkyqvYbWQ0XkjLcX0PivDjEqzQpZasPwNuJf3Vb0JJaP4MKT1BDzky5OZ/OBoc19rClnxzewlMkgVNDgW3uvDsXMuCvfdjfZwgMf+g1i+xTkGfx9FyGaQR6tb7pHwhs9TrOCHiu1enbTd6+Gd3ohzXY3vb0c6a8vpyvywkE02ePLhJq8Wc/yiN6MVJgqo2PFo1D0sWwCt+3VRdIkf8mRwbr9sszfYmIZCRlYSMWl0zRBWNIOoQtjBw4oRRDv4o9QWMqcwXHMMWB2aFTJCzbiH6NnwlZpiJuNSWUK+N2l24VohaHWoFjLkHflQbO9cGaQK8vggZI/EzhnXSbX91fSSRAarAmXj+2MRso708qUQx0vgCT9fOoaITybvTdmiQizDspBNMqodnjRSkSI3oxWGwoICvT5peivk4dqKYuX6UfDiXlk23ITKN3WblDQSMilaI1a8B7oTrENz/A7d8j8+St9TXSFTrfy/yTCjMhYhI5Jm/u24r3+oW5FFGjSYFYIm3lh6524XeUtaokrIKO8wxQk+JYNUUV/IghsarWgLIbu8SSGboVjucVo2XCMe7nRdRP7oXsHofCsFrZRmyfAdC9kkoht5EwXysVghbqWhsKBSPplMj97h3BJ2dnTV8q6PFq7ZCw+iN5irE/4ULfFTU8gGhvVssBGex+XwblbhyX8G/j5Ltb1TUqb3zqSV27eRdxGhppDRQo0dWb9PhhmVsQqZYO/lu9LgXOT9UWrKjlR4mUYkLdHv5XhfpWshYwvqCpnlfVIGqaKBkP2ioZA12bSk+ZMos+urWig4v5QTbsQ9uqvT8q7ScO9w7t/W7PA7uhU+HTt3FrJJhOaSWcH3az5RWmUoLPCQfpvoXtlMpWwJqhkcKpbEKVcOFMBsuDGZzh0og0wuNYSsNI5MMdxlMtR4qS1kTjjc0UaPLEoy7c3TzNwJNCKfPEFRnqKVmoxEwA43VXrmtZqWdGzFrr8y7biFDMIzqpDNmaOKe1VZJxBWt/27RLPa9mKrj2xnrNge5euOWBz8zUI2Sahm7p0oeNUDBVtpKMB4al2QSAxP3soAKMy64d8QK1i9NHTBv4oG/MpQk0cjIbPCiU4yri1kdrhlsoSszJy+7dVMcDjS+o2YXlTZVYH0aY6mDC2o5ZHRsSHw0fmkMSYgZJeNJmS0KQ59V3ktIErPquYBNT1cWl8PcSqWlGIhmxys3C404DB28Vtu1EwYHO406w6WbBtaj/vvEOkN5QJZLLRr641NaisNhKzRFKUmqS9kdmGpDDMqLRGyEr39O6qG9yVc/+I0pZIhfXg1lyecY8rNywZC9hkZpIp2Cplm+4shwiNbDsJEP5/p30wtGBksBg1xwT2Id8+wkE0OYkE/hwqNLEDtMFFQwvU0dUUedvLYK7edZnk3VT4laXkX/Dq560bVF7KGq180SZ0+MjQts7lW95HN0PZevmti99FXjlXS/XtBJJ6KX39454b/PVyQxkKWpRUw/NNlkCrGL2Sjd/bT3hRoJsaFjPr37OCmyv69EhDtjyBcfIAuC1n76TD9Ps0KWzspvJaJN1aF+9WeFVMyTYjm+uH4yIssYOQROOFLHZkwOsWn/dQUMuE1tVHIqLO/5UJGlfZUXMObNTs4Qe1Zth+E4/X4uqqyqgvcw/Cg/EesciNN1fC/KIMIpltnv5LJ74mHb42mZeHZWVULWh44m1YZSTnBU2K5olJ4MhayNoOnKQrhteQuxy58OwxPMpqAjqNOrgckoX044YHdHy1kdN4QlfNlkMlhKjyyNnX2q6a7SozTQ0WFCDynWt6dihVcqhjeOWrWOwX3e5VmuxfrVsWOWyRQ+FQsN7awZt2mZYNt6NrpkdGbYtSPW6reWCKsZoeP4Xy/Cu/sNDRTPw2P/2cpJ9wgxvtF80LGQtZeaLZ+lyOXO4le+JYb0l84ttHl7SBp5o/HuW6JeWV2sKbDcBfKIO2nYR9Z/fXImqROH1lhS4cVtkPIPiHmWtLxKDxVYvqk/6UIlf+P5Ed455Z/q/TgylQJGd0nxKVJ7jJIFeMXstH7yAhci5NpUO5InkbCj5xr8W85dWwDvL1b4ZltGClnLGTtZCYK0xVVN6gdhmPgabUZTYl3yWNPDfP7d4SXEFsOm5YUUo3gq/h1cjxFIWTeVSIPdO1hogI44fg60+NAyPyLomlTBaMm9diEzLtAeFrlNMjjKqxPVjSnqO8qJcKhIotKK60Ur2Tl76jC06YpwT20hr9Mpgzy/i4RriQcIrxYKPEsGaQKIWS2/7fYOUOgVCtYPYqQXS5WwS3FoXtg+09XChntf4D79QsheuI84+U6Gh9lnJYCOjuR7t8L9/P3RU8OvyEuHpg8abw99HXojte65asbGQoAnlJr4I5Pbn9UDWiQ6UilQ96oolvh41UFuF0UhewaUcipYsDEmzA72JS0K5ecGTMzkM4l0bRFBc0ODs8yvANkmFFB8/DCcsUVaawYTlmFV5OZIJY/El4aTwXvYzNdR3orXQwfMfwvvsf1xoPzCXijX6axZjKJGLgP7y7lufyJYzf0yDK+hYfTU7FzXnQQjT37VSMho26OrsVvG4lTvAcv1Jo5gSbwXFyTK2gVjmJYafi7dM4Q54eTpntiaVcwlPczKR/iHGjxSju8Bze/5gsCZmLMRCG8StyYUqVul+Gmo+Dcm+jev+5aT5NFp+H1oMA+LgpiKX9iXFl4qgzSbmamDHeZbrjH6KZ/FCr3kbSMNZpph5fWmp8Iaia3RDO894p0ZdoQgiMb7jJUAe16RIsXlvNnuEfTmDBtbl91/swlO6HSDqIp92HayANNsZ/g/+vgmVxLRosp4rvzFKTRaVesJ1YBvd0s5bn4ieMbwdG1vLcy3Yt3gPd1CIUrnbM4f3N50GgFYgXCrmXcY0txKD7uwaE1d50i8ABCfkI8hL6M8/upZnnXw/5XNbxvQ+g+kHTc+TKkgF4UwI6ic6D8aGkx+JfXI2sHVECLFbndQgavwAqvxCGnxbrlKPhfEE9KmT/ZtPsLnuC112xnmofWR6PpVOQNkTWzhdzWxm6LNXFuzgAtsMjiNOXgaQrv5KboChFtMXK9nfrNg8mmOGgxfDz2mpy8sumw8CLDMGOHXGzdCiKrqbbY4O2J5Y+t/DvkIacFSsb7bNErG+kr0+zgj61o3jEMMwWgrX9WW4XMLqxr9R6WE6XD7O9Fc/LZcl8ZNa+dcItiee+VQRiG2aqAFwJv5J52NDFpiemUHd7xmm53B3m0aUJfh2YGl0U7/entIa7DrYm5/mtkIIZhtiaSGe9tuh2+Enub1wKjddFpgKU8zLRCbIHvBOtoQKrIb7EZvGXKx7sxDDNe+joU0zs3lUWlbtVbTBIGWNLKf1AeZHrhOJ3wyi4VY5BknsUu6KZ/W73NLhiGme7My+2CptXvq/b8G6/B00llg1d0eD7yCNOOWT05L+UU1pX7CEl8nXCIvTKG2YpRTe+dKWpitqLzH94NmquPJM3C3jL5aUdnermN842v/lEcikFb+jMMs1XS3Z3UjOCColc2wSYmNdNozpuTm7pdi+qyclZyfv8+tDoDvLCh2LlC1BQzuDi6+zbDMFsZSrc7VzfDv0y443/hgcOaE3wDSU7J0j1VzJ2rdBp5UzPdY2EX65b/N7EMc1Wf4AD1k31OxmIYZmtFMdwjdJoMPN6Of+prwictaCiTnApm0hxDWtIaTdxVmuX/PGUHTwnxgkgXR/ZXnJ+YrhSs7VjQ/EKEDMNMVxYv1iBCV0Tf6I3FaNVTzQ7XK6aXkylOGjQxXLX8d2m2923dDu6iJXJEHxgZiVcND0x8VxzpP6TZwVmJldNjXijDMBOkwwqyEIEnoxOsmzYIRsoJnlQWTsJEbMfZrqPH79UM/79VO7hGs7yHUmLBSLlDdz2vkoRNrKcl1pIa0mgpbsv7EA3LkCkzDLMtkDS941N2ZF/IJo0EBJ7N9RAFWiGg5SQzwT5Jw38rTa9CU/AGeF4vFpuMJEy1vC4YfSe8MggXhFa3C89rTnCzanrnqrZ/GC29IpNnGGabYk6fiop+5Vi9MpqahKbd52UqEwf5oEXvdNs/RrP8i9Ds/TMEdpPwusqLANYSr6JwCQ/RDjZD8J7WbP9nqul+VE17S2mHJXkEhmG2ZWinIYjG35sXs6LnQwvkySTGhd4dvlFZ4OYhOKeotJid7a9BPprwugaK4kaelxOuhWf4R3huF+pWcESyJ7evWDOLYZh/PVQzOI22FaspHhVW3IQhWNOxIJeV0ZvH6NsDxzpctbxv6o5/F5p/a8W0KdFJ38jrIoNwQUQhXi8j3mrFck8XQmiFc2TqDMP8S5Ne8lp4NTcJwagUkgojIUMz7u6mBsIaK7bvsHJZxXSPVW3/R/C6HklZvlgDvux51TiG8LrodzqWE2zE8R6GeF6TtPwP6rZnJ+btN1segWEYZgTVyO8PsXhOCEwtcSkZfqddamS0KrR0324QnEHV9s5Fer+idcHIkyp7VjW9rtLvUryy4UbdCW5F8/VLqpE7OGn6tHkILzvMMMzoKLb3WVrRomogadRIyCzv+sQbMsVdbLq7k7Q5AzUZNSv4vmb690PA1pdEqeh11RavEa+rQLMEnkH86xH3FMV2lyX2cV4n0mcYhhkTVm4XNAHvarhChhC6cJNuBVdQP5VuUpMxeIrESMQT4lVDDCNel+xn24A490K8vgvxOxafWd4bkGGYlpBM5wPNCdfW7b8SBlGS3lRRuBo0Gcsd9YPDejZcCwG8E8J1Bi2xk+gN34hDTo+5mgzDbFsohndO3SZhQyOvqyhysxdRkzHcqNv+w2h2Xq0a3kkdTrC/2E6MYRim3WhzF+6mWf69Tc3FLHldNB2IPC8nXK874Z2wLybN/NvFztM8tothmKlAgwjpjr9RNB1riFe5oz4bUn/X07DVmuN/psN096PhHDIZhmGYKWRVYiY1B7UsbasG0RKj6Wm6EMTLDjaJEfW2d4luuMfodsFhr4thmGlLB40vs/zz0NT8pWZ5N2pGeKZi+G5i32Vz+C0jwzAMwzAMwzAMwzAMwzAMwzAMwzAMwzAMwzAMwzAMwzAMwzAMwzAMwzAMwzAMwzAMwzAMwzAMwzAMwzAMwzAMwzAMwzAMwzAMwzAMwzAMwzAMwzAMwzDM1kAi8f9DcDiapgeXcAAAAABJRU5ErkJggg==;" vertex="1" parent="1">
                    <mxGeometry x="547.56" y="191.76" width="63.29" height="26.48" as="geometry"/>
                </mxCell>
                <mxCell id="67" style="edgeStyle=none;html=1;fontFamily=Helvetica;fontSize=10;fontColor=default;" edge="1" parent="1">
                    <mxGeometry relative="1" as="geometry">
                        <mxPoint x="590" y="299" as="targetPoint"/>
                        <mxPoint x="590" y="224" as="sourcePoint"/>
                        <Array as="points"/>
                    </mxGeometry>
                </mxCell>
                <mxCell id="81" value="&lt;font style=&quot;font-size: 9px&quot;&gt;search&lt;/font&gt;" style="aspect=fixed;html=1;points=[];align=center;image;fontSize=12;image=img/lib/azure2/general/Search.svg;dashed=0;fontFamily=Helvetica;fontColor=default;strokeColor=default;fillColor=default;" vertex="1" parent="1">
                    <mxGeometry x="610.85" y="260.00000000000006" width="14" height="14.22" as="geometry"/>
                </mxCell>
                <mxCell id="85" style="edgeStyle=none;html=1;fontFamily=Helvetica;fontSize=9;fontColor=default;" edge="1" parent="1">
                    <mxGeometry relative="1" as="geometry">
                        <mxPoint x="490" y="218.24" as="targetPoint"/>
                        <mxPoint x="547.56" y="218.24" as="sourcePoint"/>
                        <Array as="points">
                            <mxPoint x="500" y="218.24"/>
                        </Array>
                    </mxGeometry>
                </mxCell>
                <mxCell id="87" style="edgeStyle=none;html=1;fontFamily=Helvetica;fontSize=9;fontColor=default;" edge="1" parent="1">
                    <mxGeometry relative="1" as="geometry">
                        <mxPoint x="170" y="218.24" as="targetPoint"/>
                        <mxPoint x="240" y="218.24" as="sourcePoint"/>
                    </mxGeometry>
                </mxCell>
                <mxCell id="102" style="edgeStyle=none;html=1;entryX=1;entryY=0.5;entryDx=0;entryDy=0;fontFamily=Helvetica;fontSize=9;fontColor=default;" edge="1" parent="1">
                    <mxGeometry relative="1" as="geometry">
                        <mxPoint x="404.71" y="218.24" as="sourcePoint"/>
                        <mxPoint x="322.11999999999995" y="218.48000000000002" as="targetPoint"/>
                    </mxGeometry>
                </mxCell>
                <mxCell id="107" style="edgeStyle=none;html=1;fontFamily=Helvetica;fontSize=9;fontColor=default;" edge="1" parent="1">
                    <mxGeometry relative="1" as="geometry">
                        <mxPoint x="340.00000000000006" y="400" as="sourcePoint"/>
                        <mxPoint x="310" y="380" as="targetPoint"/>
                    </mxGeometry>
                </mxCell>
                <mxCell id="110" style="edgeStyle=none;html=1;fontFamily=Helvetica;fontSize=9;fontColor=default;" edge="1" parent="1">
                    <mxGeometry relative="1" as="geometry">
                        <mxPoint x="413.09" y="380" as="sourcePoint"/>
                        <mxPoint x="388.99999999999994" y="403.0326704545455" as="targetPoint"/>
                    </mxGeometry>
                </mxCell>
                <mxCell id="112" style="edgeStyle=none;html=1;fontFamily=Helvetica;fontSize=9;fontColor=default;" edge="1" parent="1">
                    <mxGeometry relative="1" as="geometry">
                        <mxPoint x="560.2" y="332.2899999999999" as="targetPoint"/>
                        <mxPoint x="480.2" y="332.2899999999999" as="sourcePoint"/>
                    </mxGeometry>
                </mxCell>
                <mxCell id="115" value="" style="edgeStyle=none;html=1;fontFamily=Helvetica;fontSize=10;fontColor=default;" edge="1" parent="1">
                    <mxGeometry relative="1" as="geometry">
                        <mxPoint x="458.81999999999994" y="243.87999999999988" as="sourcePoint"/>
                        <mxPoint x="458.81999999999994" y="313.8799999999999" as="targetPoint"/>
                    </mxGeometry>
                </mxCell>
                <mxCell id="116" style="edgeStyle=none;html=1;fontFamily=Helvetica;fontSize=10;fontColor=default;" edge="1" parent="1">
                    <mxGeometry relative="1" as="geometry">
                        <mxPoint x="268.91" y="308.05" as="sourcePoint"/>
                        <mxPoint x="268.9964294736843" y="240.1699999999999" as="targetPoint"/>
                    </mxGeometry>
                </mxCell>
                <mxCell id="117" style="edgeStyle=none;html=1;fontFamily=Helvetica;fontSize=10;fontColor=default;" edge="1" parent="1">
                    <mxGeometry relative="1" as="geometry">
                        <mxPoint x="447.9100000000002" y="311.04999999999984" as="sourcePoint"/>
                        <mxPoint x="447.9964294736843" y="243.16999999999973" as="targetPoint"/>
                    </mxGeometry>
                </mxCell>
            </root>
        </mxGraphModel>
    </diagram>
</mxfile>